<mxfile host="app.diagrams.net" modified="2024-06-14T17:08:44.595Z" agent="Mozilla/5.0 (Windows NT 10.0; Win64; x64) AppleWebKit/537.36 (KHTML, like Gecko) Chrome/124.0.0.0 Safari/537.36 OPR/110.0.0.0" etag="JjKGlwXxXSQ-J3edofi1" version="24.5.4" type="device">
  <diagram id="C5RBs43oDa-KdzZeNtuy" name="Page-1">
    <mxGraphModel dx="1380" dy="819" grid="1" gridSize="10" guides="1" tooltips="1" connect="1" arrows="1" fold="1" page="1" pageScale="1" pageWidth="827" pageHeight="1169" math="0" shadow="0">
      <root>
        <mxCell id="WIyWlLk6GJQsqaUBKTNV-0" />
        <mxCell id="WIyWlLk6GJQsqaUBKTNV-1" parent="WIyWlLk6GJQsqaUBKTNV-0" />
        <mxCell id="WIyWlLk6GJQsqaUBKTNV-8" value="No" style="rounded=0;html=1;jettySize=auto;orthogonalLoop=1;fontSize=11;endArrow=block;endFill=0;endSize=8;strokeWidth=1;shadow=0;labelBackgroundColor=none;edgeStyle=orthogonalEdgeStyle;" parent="WIyWlLk6GJQsqaUBKTNV-1" edge="1">
          <mxGeometry x="0.3333" y="20" relative="1" as="geometry">
            <mxPoint as="offset" />
            <mxPoint x="330" y="440" as="sourcePoint" />
          </mxGeometry>
        </mxCell>
        <mxCell id="WIyWlLk6GJQsqaUBKTNV-9" value="Yes" style="edgeStyle=orthogonalEdgeStyle;rounded=0;html=1;jettySize=auto;orthogonalLoop=1;fontSize=11;endArrow=block;endFill=0;endSize=8;strokeWidth=1;shadow=0;labelBackgroundColor=none;" parent="WIyWlLk6GJQsqaUBKTNV-1" edge="1">
          <mxGeometry y="10" relative="1" as="geometry">
            <mxPoint as="offset" />
            <mxPoint x="430" y="400" as="targetPoint" />
          </mxGeometry>
        </mxCell>
        <mxCell id="4GhjZ-f7PvsUTq7iv2KQ-1" style="edgeStyle=orthogonalEdgeStyle;rounded=0;orthogonalLoop=1;jettySize=auto;html=1;entryX=0.5;entryY=1;entryDx=0;entryDy=0;" parent="WIyWlLk6GJQsqaUBKTNV-1" source="4GhjZ-f7PvsUTq7iv2KQ-3" target="4GhjZ-f7PvsUTq7iv2KQ-26" edge="1">
          <mxGeometry relative="1" as="geometry">
            <mxPoint x="700" y="520" as="targetPoint" />
          </mxGeometry>
        </mxCell>
        <mxCell id="4GhjZ-f7PvsUTq7iv2KQ-95" style="edgeStyle=orthogonalEdgeStyle;rounded=0;orthogonalLoop=1;jettySize=auto;html=1;" parent="WIyWlLk6GJQsqaUBKTNV-1" source="4GhjZ-f7PvsUTq7iv2KQ-3" target="4GhjZ-f7PvsUTq7iv2KQ-94" edge="1">
          <mxGeometry relative="1" as="geometry" />
        </mxCell>
        <mxCell id="4GhjZ-f7PvsUTq7iv2KQ-3" value="Idling" style="rounded=1;whiteSpace=wrap;html=1;fontSize=12;glass=0;strokeWidth=1;shadow=0;fillColor=#dae8fc;strokeColor=#6c8ebf;" parent="WIyWlLk6GJQsqaUBKTNV-1" vertex="1">
          <mxGeometry x="390" y="565" width="120" height="40" as="geometry" />
        </mxCell>
        <mxCell id="4GhjZ-f7PvsUTq7iv2KQ-17" value="Walking" style="rounded=1;whiteSpace=wrap;html=1;fontSize=12;glass=0;strokeWidth=1;shadow=0;fillColor=#dae8fc;strokeColor=#6c8ebf;" parent="WIyWlLk6GJQsqaUBKTNV-1" vertex="1">
          <mxGeometry x="150" y="250" width="120" height="40" as="geometry" />
        </mxCell>
        <mxCell id="4GhjZ-f7PvsUTq7iv2KQ-18" value="LÃ©gende" style="swimlane;fontStyle=0;childLayout=stackLayout;horizontal=1;startSize=30;horizontalStack=0;resizeParent=1;resizeParentMax=0;resizeLast=0;collapsible=1;marginBottom=0;whiteSpace=wrap;html=1;strokeColor=none;" parent="WIyWlLk6GJQsqaUBKTNV-1" vertex="1">
          <mxGeometry x="360" y="1080" width="140" height="90" as="geometry" />
        </mxCell>
        <mxCell id="4GhjZ-f7PvsUTq7iv2KQ-19" value="&lt;font color=&quot;#97d077&quot;&gt;pressed&amp;nbsp;&lt;/font&gt;:&amp;nbsp; &amp;nbsp; &amp;nbsp; &amp;nbsp; &amp;nbsp; &amp;nbsp;pressed" style="text;strokeColor=none;fillColor=none;align=left;verticalAlign=middle;spacingLeft=4;spacingRight=4;overflow=hidden;points=[[0,0.5],[1,0.5]];portConstraint=eastwest;rotatable=0;whiteSpace=wrap;html=1;" parent="4GhjZ-f7PvsUTq7iv2KQ-18" vertex="1">
          <mxGeometry y="30" width="140" height="30" as="geometry" />
        </mxCell>
        <mxCell id="4GhjZ-f7PvsUTq7iv2KQ-20" value="&lt;font color=&quot;#7ea6e0&quot;&gt;square&amp;nbsp;&lt;/font&gt;:&amp;nbsp; &amp;nbsp; &amp;nbsp; &amp;nbsp; &amp;nbsp; &amp;nbsp; &amp;nbsp; &amp;nbsp; &amp;nbsp;state" style="text;strokeColor=none;fillColor=none;align=left;verticalAlign=middle;spacingLeft=4;spacingRight=4;overflow=hidden;points=[[0,0.5],[1,0.5]];portConstraint=eastwest;rotatable=0;whiteSpace=wrap;html=1;" parent="4GhjZ-f7PvsUTq7iv2KQ-18" vertex="1">
          <mxGeometry y="60" width="140" height="30" as="geometry" />
        </mxCell>
        <mxCell id="4GhjZ-f7PvsUTq7iv2KQ-75" style="edgeStyle=orthogonalEdgeStyle;rounded=0;orthogonalLoop=1;jettySize=auto;html=1;entryX=0.5;entryY=1;entryDx=0;entryDy=0;" parent="WIyWlLk6GJQsqaUBKTNV-1" source="4GhjZ-f7PvsUTq7iv2KQ-26" target="4GhjZ-f7PvsUTq7iv2KQ-74" edge="1">
          <mxGeometry relative="1" as="geometry" />
        </mxCell>
        <mxCell id="4GhjZ-f7PvsUTq7iv2KQ-26" value="LeftClick" style="shape=hexagon;perimeter=hexagonPerimeter2;whiteSpace=wrap;html=1;fixedSize=1;fillColor=#d5e8d4;strokeColor=#82b366;" parent="WIyWlLk6GJQsqaUBKTNV-1" vertex="1">
          <mxGeometry x="410" y="460" width="80" height="35" as="geometry" />
        </mxCell>
        <mxCell id="4GhjZ-f7PvsUTq7iv2KQ-92" style="edgeStyle=orthogonalEdgeStyle;rounded=0;orthogonalLoop=1;jettySize=auto;html=1;entryX=0;entryY=0.5;entryDx=0;entryDy=0;" parent="WIyWlLk6GJQsqaUBKTNV-1" source="4GhjZ-f7PvsUTq7iv2KQ-28" target="4GhjZ-f7PvsUTq7iv2KQ-91" edge="1">
          <mxGeometry relative="1" as="geometry" />
        </mxCell>
        <mxCell id="4GhjZ-f7PvsUTq7iv2KQ-28" value="LeftClick" style="shape=hexagon;perimeter=hexagonPerimeter2;whiteSpace=wrap;html=1;fixedSize=1;fillColor=#f8cecc;strokeColor=#b85450;" parent="WIyWlLk6GJQsqaUBKTNV-1" vertex="1">
          <mxGeometry x="780" y="262.5" width="80" height="35" as="geometry" />
        </mxCell>
        <mxCell id="4GhjZ-f7PvsUTq7iv2KQ-70" style="edgeStyle=orthogonalEdgeStyle;rounded=0;orthogonalLoop=1;jettySize=auto;html=1;entryX=0.5;entryY=0;entryDx=0;entryDy=0;" parent="WIyWlLk6GJQsqaUBKTNV-1" source="4GhjZ-f7PvsUTq7iv2KQ-69" target="4GhjZ-f7PvsUTq7iv2KQ-17" edge="1">
          <mxGeometry relative="1" as="geometry" />
        </mxCell>
        <mxCell id="4GhjZ-f7PvsUTq7iv2KQ-69" value="Movement&lt;div&gt;Key&lt;/div&gt;" style="shape=hexagon;perimeter=hexagonPerimeter2;whiteSpace=wrap;html=1;fixedSize=1;fillColor=#d5e8d4;strokeColor=#82b366;" parent="WIyWlLk6GJQsqaUBKTNV-1" vertex="1">
          <mxGeometry x="170" y="140" width="80" height="35" as="geometry" />
        </mxCell>
        <mxCell id="4GhjZ-f7PvsUTq7iv2KQ-82" value="No" style="edgeStyle=orthogonalEdgeStyle;rounded=0;orthogonalLoop=1;jettySize=auto;html=1;entryX=0.5;entryY=1;entryDx=0;entryDy=0;entryPerimeter=0;" parent="WIyWlLk6GJQsqaUBKTNV-1" source="4GhjZ-f7PvsUTq7iv2KQ-71" target="4GhjZ-f7PvsUTq7iv2KQ-87" edge="1">
          <mxGeometry relative="1" as="geometry">
            <mxPoint x="450" y="200.03999999999996" as="targetPoint" />
          </mxGeometry>
        </mxCell>
        <mxCell id="4GhjZ-f7PvsUTq7iv2KQ-83" value="Yes" style="edgeStyle=orthogonalEdgeStyle;rounded=0;orthogonalLoop=1;jettySize=auto;html=1;entryX=0;entryY=0.5;entryDx=0;entryDy=0;" parent="WIyWlLk6GJQsqaUBKTNV-1" source="4GhjZ-f7PvsUTq7iv2KQ-71" target="4GhjZ-f7PvsUTq7iv2KQ-89" edge="1">
          <mxGeometry relative="1" as="geometry">
            <mxPoint x="590" y="280" as="targetPoint" />
          </mxGeometry>
        </mxCell>
        <mxCell id="4GhjZ-f7PvsUTq7iv2KQ-71" value="Is There a Pikmin&lt;div&gt;In Proximity ?&lt;/div&gt;" style="rhombus;whiteSpace=wrap;html=1;" parent="WIyWlLk6GJQsqaUBKTNV-1" vertex="1">
          <mxGeometry x="397.5" y="240" width="105" height="80" as="geometry" />
        </mxCell>
        <mxCell id="4GhjZ-f7PvsUTq7iv2KQ-76" value="No" style="edgeStyle=orthogonalEdgeStyle;rounded=0;orthogonalLoop=1;jettySize=auto;html=1;entryX=0.5;entryY=1;entryDx=0;entryDy=0;" parent="WIyWlLk6GJQsqaUBKTNV-1" source="4GhjZ-f7PvsUTq7iv2KQ-74" target="4GhjZ-f7PvsUTq7iv2KQ-71" edge="1">
          <mxGeometry relative="1" as="geometry" />
        </mxCell>
        <mxCell id="4GhjZ-f7PvsUTq7iv2KQ-77" value="Yes" style="edgeStyle=orthogonalEdgeStyle;rounded=0;orthogonalLoop=1;jettySize=auto;html=1;entryX=0;entryY=0.563;entryDx=0;entryDy=0;entryPerimeter=0;" parent="WIyWlLk6GJQsqaUBKTNV-1" source="4GhjZ-f7PvsUTq7iv2KQ-74" target="4GhjZ-f7PvsUTq7iv2KQ-79" edge="1">
          <mxGeometry relative="1" as="geometry">
            <mxPoint x="580" y="390" as="targetPoint" />
          </mxGeometry>
        </mxCell>
        <mxCell id="4GhjZ-f7PvsUTq7iv2KQ-74" value="Is There a Sprout&lt;div&gt;In Proximity ?&lt;/div&gt;" style="rhombus;whiteSpace=wrap;html=1;" parent="WIyWlLk6GJQsqaUBKTNV-1" vertex="1">
          <mxGeometry x="397.5" y="350" width="105" height="80" as="geometry" />
        </mxCell>
        <mxCell id="4GhjZ-f7PvsUTq7iv2KQ-80" style="edgeStyle=orthogonalEdgeStyle;rounded=0;orthogonalLoop=1;jettySize=auto;html=1;entryX=1;entryY=0.5;entryDx=0;entryDy=0;exitX=0.5;exitY=1;exitDx=0;exitDy=0;" parent="WIyWlLk6GJQsqaUBKTNV-1" source="4GhjZ-f7PvsUTq7iv2KQ-79" target="4GhjZ-f7PvsUTq7iv2KQ-3" edge="1">
          <mxGeometry relative="1" as="geometry">
            <mxPoint x="550" y="500" as="targetPoint" />
            <Array as="points">
              <mxPoint x="650" y="585" />
            </Array>
          </mxGeometry>
        </mxCell>
        <mxCell id="4GhjZ-f7PvsUTq7iv2KQ-79" value="DigUpPikmin" style="rounded=1;whiteSpace=wrap;html=1;fontSize=12;glass=0;strokeWidth=1;shadow=0;" parent="WIyWlLk6GJQsqaUBKTNV-1" vertex="1">
          <mxGeometry x="590" y="367.5" width="120" height="40" as="geometry" />
        </mxCell>
        <mxCell id="4GhjZ-f7PvsUTq7iv2KQ-88" style="edgeStyle=orthogonalEdgeStyle;rounded=0;orthogonalLoop=1;jettySize=auto;html=1;entryX=0;entryY=0.5;entryDx=0;entryDy=0;" parent="WIyWlLk6GJQsqaUBKTNV-1" source="4GhjZ-f7PvsUTq7iv2KQ-87" target="4GhjZ-f7PvsUTq7iv2KQ-3" edge="1">
          <mxGeometry relative="1" as="geometry">
            <Array as="points">
              <mxPoint x="350" y="180" />
              <mxPoint x="350" y="585" />
            </Array>
          </mxGeometry>
        </mxCell>
        <mxCell id="4GhjZ-f7PvsUTq7iv2KQ-87" value="Punch" style="rounded=1;whiteSpace=wrap;html=1;fontSize=12;glass=0;strokeWidth=1;shadow=0;" parent="WIyWlLk6GJQsqaUBKTNV-1" vertex="1">
          <mxGeometry x="390" y="160" width="120" height="40" as="geometry" />
        </mxCell>
        <mxCell id="4GhjZ-f7PvsUTq7iv2KQ-90" style="edgeStyle=orthogonalEdgeStyle;rounded=0;orthogonalLoop=1;jettySize=auto;html=1;entryX=0;entryY=0.5;entryDx=0;entryDy=0;" parent="WIyWlLk6GJQsqaUBKTNV-1" source="4GhjZ-f7PvsUTq7iv2KQ-89" target="4GhjZ-f7PvsUTq7iv2KQ-28" edge="1">
          <mxGeometry relative="1" as="geometry" />
        </mxCell>
        <mxCell id="4GhjZ-f7PvsUTq7iv2KQ-89" value="Grabing" style="rounded=1;whiteSpace=wrap;html=1;fontSize=12;glass=0;strokeWidth=1;shadow=0;fillColor=#dae8fc;strokeColor=#6c8ebf;" parent="WIyWlLk6GJQsqaUBKTNV-1" vertex="1">
          <mxGeometry x="590" y="260" width="120" height="40" as="geometry" />
        </mxCell>
        <mxCell id="4GhjZ-f7PvsUTq7iv2KQ-93" style="edgeStyle=orthogonalEdgeStyle;rounded=0;orthogonalLoop=1;jettySize=auto;html=1;entryX=1;entryY=0.5;entryDx=0;entryDy=0;" parent="WIyWlLk6GJQsqaUBKTNV-1" source="4GhjZ-f7PvsUTq7iv2KQ-91" target="4GhjZ-f7PvsUTq7iv2KQ-3" edge="1">
          <mxGeometry relative="1" as="geometry">
            <Array as="points">
              <mxPoint x="970" y="585" />
            </Array>
          </mxGeometry>
        </mxCell>
        <mxCell id="4GhjZ-f7PvsUTq7iv2KQ-91" value="ThrowPikmin" style="rounded=1;whiteSpace=wrap;html=1;fontSize=12;glass=0;strokeWidth=1;shadow=0;" parent="WIyWlLk6GJQsqaUBKTNV-1" vertex="1">
          <mxGeometry x="920" y="260" width="120" height="40" as="geometry" />
        </mxCell>
        <mxCell id="4GhjZ-f7PvsUTq7iv2KQ-97" style="edgeStyle=orthogonalEdgeStyle;rounded=0;orthogonalLoop=1;jettySize=auto;html=1;entryX=0.5;entryY=0;entryDx=0;entryDy=0;" parent="WIyWlLk6GJQsqaUBKTNV-1" source="4GhjZ-f7PvsUTq7iv2KQ-94" target="4GhjZ-f7PvsUTq7iv2KQ-96" edge="1">
          <mxGeometry relative="1" as="geometry" />
        </mxCell>
        <mxCell id="4GhjZ-f7PvsUTq7iv2KQ-94" value="RightClick" style="shape=hexagon;perimeter=hexagonPerimeter2;whiteSpace=wrap;html=1;fixedSize=1;fillColor=#d5e8d4;strokeColor=#82b366;" parent="WIyWlLk6GJQsqaUBKTNV-1" vertex="1">
          <mxGeometry x="410" y="670" width="80" height="35" as="geometry" />
        </mxCell>
        <mxCell id="4GhjZ-f7PvsUTq7iv2KQ-100" style="edgeStyle=orthogonalEdgeStyle;rounded=0;orthogonalLoop=1;jettySize=auto;html=1;" parent="WIyWlLk6GJQsqaUBKTNV-1" source="4GhjZ-f7PvsUTq7iv2KQ-96" target="4GhjZ-f7PvsUTq7iv2KQ-99" edge="1">
          <mxGeometry relative="1" as="geometry" />
        </mxCell>
        <mxCell id="4GhjZ-f7PvsUTq7iv2KQ-102" style="edgeStyle=orthogonalEdgeStyle;rounded=0;orthogonalLoop=1;jettySize=auto;html=1;" parent="WIyWlLk6GJQsqaUBKTNV-1" source="4GhjZ-f7PvsUTq7iv2KQ-96" target="4GhjZ-f7PvsUTq7iv2KQ-103" edge="1">
          <mxGeometry relative="1" as="geometry">
            <mxPoint x="450" y="880" as="targetPoint" />
          </mxGeometry>
        </mxCell>
        <mxCell id="4GhjZ-f7PvsUTq7iv2KQ-96" value="Whisting" style="rounded=1;whiteSpace=wrap;html=1;fontSize=12;glass=0;strokeWidth=1;shadow=0;fillColor=#dae8fc;strokeColor=#6c8ebf;" parent="WIyWlLk6GJQsqaUBKTNV-1" vertex="1">
          <mxGeometry x="390" y="770" width="120" height="40" as="geometry" />
        </mxCell>
        <mxCell id="4GhjZ-f7PvsUTq7iv2KQ-101" style="edgeStyle=orthogonalEdgeStyle;rounded=0;orthogonalLoop=1;jettySize=auto;html=1;entryX=0;entryY=0.5;entryDx=0;entryDy=0;" parent="WIyWlLk6GJQsqaUBKTNV-1" source="4GhjZ-f7PvsUTq7iv2KQ-99" target="4GhjZ-f7PvsUTq7iv2KQ-3" edge="1">
          <mxGeometry relative="1" as="geometry">
            <Array as="points">
              <mxPoint x="290" y="585" />
            </Array>
          </mxGeometry>
        </mxCell>
        <mxCell id="4GhjZ-f7PvsUTq7iv2KQ-99" value="RightClick" style="shape=hexagon;perimeter=hexagonPerimeter2;whiteSpace=wrap;html=1;fixedSize=1;fillColor=#f8cecc;strokeColor=#b85450;" parent="WIyWlLk6GJQsqaUBKTNV-1" vertex="1">
          <mxGeometry x="250" y="772.5" width="80" height="35" as="geometry" />
        </mxCell>
        <mxCell id="4GhjZ-f7PvsUTq7iv2KQ-104" value="Yes" style="edgeStyle=orthogonalEdgeStyle;rounded=0;orthogonalLoop=1;jettySize=auto;html=1;" parent="WIyWlLk6GJQsqaUBKTNV-1" source="4GhjZ-f7PvsUTq7iv2KQ-103" edge="1">
          <mxGeometry relative="1" as="geometry">
            <mxPoint x="580" y="930" as="targetPoint" />
          </mxGeometry>
        </mxCell>
        <mxCell id="4GhjZ-f7PvsUTq7iv2KQ-110" value="No" style="edgeStyle=orthogonalEdgeStyle;rounded=0;orthogonalLoop=1;jettySize=auto;html=1;entryX=0;entryY=1;entryDx=0;entryDy=0;" parent="WIyWlLk6GJQsqaUBKTNV-1" source="4GhjZ-f7PvsUTq7iv2KQ-103" target="4GhjZ-f7PvsUTq7iv2KQ-96" edge="1">
          <mxGeometry relative="1" as="geometry">
            <mxPoint x="350" y="930" as="targetPoint" />
            <Array as="points">
              <mxPoint x="370" y="930" />
              <mxPoint x="370" y="810" />
            </Array>
          </mxGeometry>
        </mxCell>
        <mxCell id="4GhjZ-f7PvsUTq7iv2KQ-103" value="Is There A Pikmin Within Whistle Radius ?" style="rhombus;whiteSpace=wrap;html=1;" parent="WIyWlLk6GJQsqaUBKTNV-1" vertex="1">
          <mxGeometry x="393.75" y="880" width="112.5" height="100" as="geometry" />
        </mxCell>
        <mxCell id="4GhjZ-f7PvsUTq7iv2KQ-109" style="edgeStyle=orthogonalEdgeStyle;rounded=0;orthogonalLoop=1;jettySize=auto;html=1;entryX=1;entryY=0.5;entryDx=0;entryDy=0;" parent="WIyWlLk6GJQsqaUBKTNV-1" source="4GhjZ-f7PvsUTq7iv2KQ-106" target="4GhjZ-f7PvsUTq7iv2KQ-96" edge="1">
          <mxGeometry relative="1" as="geometry">
            <Array as="points">
              <mxPoint x="640" y="790" />
            </Array>
          </mxGeometry>
        </mxCell>
        <mxCell id="4GhjZ-f7PvsUTq7iv2KQ-106" value="AddPikminToGroup" style="rounded=1;whiteSpace=wrap;html=1;fontSize=12;glass=0;strokeWidth=1;shadow=0;" parent="WIyWlLk6GJQsqaUBKTNV-1" vertex="1">
          <mxGeometry x="580" y="910" width="120" height="40" as="geometry" />
        </mxCell>
        <mxCell id="4GhjZ-f7PvsUTq7iv2KQ-112" style="edgeStyle=orthogonalEdgeStyle;rounded=0;orthogonalLoop=1;jettySize=auto;html=1;entryX=0.5;entryY=0;entryDx=0;entryDy=0;" parent="WIyWlLk6GJQsqaUBKTNV-1" source="4GhjZ-f7PvsUTq7iv2KQ-113" target="4GhjZ-f7PvsUTq7iv2KQ-114" edge="1">
          <mxGeometry relative="1" as="geometry">
            <mxPoint x="109.99999999999977" y="559.9999999999998" as="targetPoint" />
          </mxGeometry>
        </mxCell>
        <mxCell id="4GhjZ-f7PvsUTq7iv2KQ-113" value="ScrollWell" style="shape=hexagon;perimeter=hexagonPerimeter2;whiteSpace=wrap;html=1;fixedSize=1;fillColor=#d5e8d4;strokeColor=#82b366;" parent="WIyWlLk6GJQsqaUBKTNV-1" vertex="1">
          <mxGeometry x="70" y="450" width="80" height="35" as="geometry" />
        </mxCell>
        <mxCell id="4GhjZ-f7PvsUTq7iv2KQ-114" value="ChangeActifPikminType" style="rounded=1;whiteSpace=wrap;html=1;fontSize=12;glass=0;strokeWidth=1;shadow=0;" parent="WIyWlLk6GJQsqaUBKTNV-1" vertex="1">
          <mxGeometry x="50" y="585" width="120" height="40" as="geometry" />
        </mxCell>
        <mxCell id="__zQ9e_6UwQcQ3tgjhyb-0" style="edgeStyle=orthogonalEdgeStyle;rounded=0;orthogonalLoop=1;jettySize=auto;html=1;entryX=0.5;entryY=0;entryDx=0;entryDy=0;" edge="1" parent="WIyWlLk6GJQsqaUBKTNV-1" source="__zQ9e_6UwQcQ3tgjhyb-1" target="__zQ9e_6UwQcQ3tgjhyb-2">
          <mxGeometry relative="1" as="geometry">
            <mxPoint x="109.99999999999977" y="814.9999999999998" as="targetPoint" />
          </mxGeometry>
        </mxCell>
        <mxCell id="__zQ9e_6UwQcQ3tgjhyb-1" value="DisbandKey" style="shape=hexagon;perimeter=hexagonPerimeter2;whiteSpace=wrap;html=1;fixedSize=1;fillColor=#d5e8d4;strokeColor=#82b366;" vertex="1" parent="WIyWlLk6GJQsqaUBKTNV-1">
          <mxGeometry x="70" y="705" width="80" height="35" as="geometry" />
        </mxCell>
        <mxCell id="__zQ9e_6UwQcQ3tgjhyb-2" value="DisbandPikmin" style="rounded=1;whiteSpace=wrap;html=1;fontSize=12;glass=0;strokeWidth=1;shadow=0;" vertex="1" parent="WIyWlLk6GJQsqaUBKTNV-1">
          <mxGeometry x="50" y="840" width="120" height="40" as="geometry" />
        </mxCell>
      </root>
    </mxGraphModel>
  </diagram>
</mxfile>
